<svg xmlns="http://www.w3.org/2000/svg" viewBox="0 0 128 128" role="img" aria-labelledby="title desc">
  <title id="title">LayerRail white mark</title>
  <desc id="desc">A monochrome white layered rail mark.</desc>
  <path fill="#fff" d="M64 8 116 34 98 45 64 28 30 45 12 34 64 8Z"/>
  <path fill="#fff" opacity=".88" d="M64 39 109 62 94 72 64 57 34 72 19 62 64 39Z"/>
  <path fill="#fff" d="M26 86 53 73 61 84 39 112 14 96 26 86Z"/>
  <path fill="#fff" d="M102 86 75 73 67 84 89 112 114 96 102 86Z"/>
  <path fill="#fff" d="M57 68h14l13 50H44l13-50Z"/>
  <path fill="none" stroke="#8B67F2" stroke-width="3.8" stroke-linecap="round" d="M58 82h12M55 94h18M51 106h26"/>
</svg>
